<svg width="100" height="66" viewBox="0 0 100 66" fill="none" xmlns="http://www.w3.org/2000/svg">
  <path fill-rule="evenodd" clip-rule="evenodd" d="M71.7859 0V37.1206H28.2068V0H0V65.2174H100V0H71.7932H71.7859ZM73.2013 37.1206H98.5699V1.41363H73.2013V37.1206ZM1.41547 63.8111H26.784V1.41363H1.41547V63.8038V63.8111ZM28.2068 63.8111H98.5772V38.5415H28.2068V63.8111Z" fill="#74777B"/>
  <path fill-rule="evenodd" clip-rule="evenodd" d="M16.4869 58.4497L17.059 59.8193H20.6967V47.2871H16.1275V54.0257C16.1275 55.4979 15.1374 56.5087 13.766 56.5087C12.5705 56.5087 11.7124 55.6737 11.7124 54.4798V47.2871H7.14331V55.2122C7.14331 58.1201 9.27019 60.127 12.2845 60.127C14.0007 60.127 15.4821 59.541 16.4942 58.457L16.4869 58.4497Z" fill="#74777B"/>
  <path fill-rule="evenodd" clip-rule="evenodd" d="M35.4454 60.1269H39.9119V50.8541H42.5008V47.4482H39.9119V46.7304C39.9119 45.8808 40.4473 45.3754 41.254 45.3754C41.6868 45.3754 42.1928 45.4267 42.7209 45.5292L43.2783 42.1966C42.1635 41.9182 41.1514 41.7864 40.1613 41.7864C37.345 41.7864 35.4454 43.5809 35.4454 46.269V47.4482H33.3406V50.8541H35.4454V60.1269Z" fill="#74777B"/>
  <path fill-rule="evenodd" clip-rule="evenodd" d="M51.4118 49.9679C52.952 49.9679 54.0521 51.3229 54.0521 53.2566C54.0521 55.1903 52.952 56.516 51.4118 56.516C49.8717 56.516 48.7935 55.1683 48.7935 53.2566C48.7935 51.3449 49.8717 49.9679 51.4118 49.9679ZM51.4118 60.1197C55.6656 60.1197 58.6359 57.2851 58.6359 53.2566C58.6359 49.2281 55.6656 46.3643 51.4118 46.3643C47.158 46.3643 44.1877 49.1988 44.1877 53.2566C44.1877 57.3144 47.1874 60.1197 51.4118 60.1197Z" fill="#74777B"/>
  <path fill-rule="evenodd" clip-rule="evenodd" d="M65.8011 53.9231C65.8011 52.114 66.8646 50.8615 68.5588 50.8615C69.0648 50.8615 69.6002 50.9347 70.0036 51.0153L70.3849 47.4702C69.9082 47.3677 69.3508 47.2944 68.9401 47.2944C67.4733 47.2944 66.2045 47.961 65.4491 49.0816L64.8917 47.4995H61.3494V60.1343H65.8011V53.9304V53.9231Z" fill="#74777B"/>
  <path fill-rule="evenodd" clip-rule="evenodd" d="M76.7583 53.2126C76.7583 51.8722 77.6384 50.9347 78.9439 50.9347C80.0073 50.9347 80.7627 51.6672 80.7627 52.7365V60.1343H85.3319V53.22C85.3319 51.8796 86.212 50.942 87.4881 50.942C88.5735 50.942 89.3069 51.6745 89.3069 52.7439V60.1416H93.8761V52.0114C93.8761 49.2501 91.8518 47.3018 88.9402 47.3018C87.2534 47.3018 85.7499 47.961 84.3711 49.1768C83.5644 48.0122 82.1122 47.3018 80.396 47.3018C78.8852 47.3018 77.5431 47.8364 76.399 48.8692L75.8269 47.6021H72.1892V60.1416H76.7583V53.2273V53.2126Z" fill="#74777B"/>
</svg>
